<svg xmlns="http://www.w3.org/2000/svg" width="1922" height="1080" xmlns:v="https://vecta.io/nano"><path fill="#fdfdf3" d="M0 0h1920v1080H0z"/><path d="M43 163.5l-41 29v-58zm1838 270l41-27.5v55z" fill="#ffd466"/><path d="M28 538.5l-26 19v-38z" fill="#53bfed"/><path d="M40 587L2 614.5v-55zM28 902.5l-26 19v-38z" fill="#f74a2a"/><path d="M1896 899.5l26-19v38z" fill="#5d9e64"/><path d="M1896 156.9l26-18.5v37z" fill="#51c0ed"/><path d="M1881.32 76.872l14.679 3.125-10.036 11.147z" fill="#f04d24"/><path d="M1863.845 334.983l12.216-10.524 3.053 15.706zm-33.318 621l12.216-10.524 3.053 15.706z" fill="#696ba4"/><path fill="#78d1f3" d="M1851.9 777.819l10.101 8.177-8.177 10.101-10.101-8.177z"/><path fill="#f54c25" d="M1835.083 640.799l38.945 2.041-.366 6.99-38.945-2.041z"/><path d="M74.023 301.99l-15.519 4.376 3.87-15.525z" fill="#ef4c29"/><g fill="#fcbad6"><circle cx="66.5" cy="53.5" r="7.5"/><circle cx="47.5" cy="766.5" r="7.5"/></g></svg>