<svg xmlns="http://www.w3.org/2000/svg" xmlns:xlink="http://www.w3.org/1999/xlink" width="1920" height="1080" xmlns:v="https://vecta.io/nano"><path fill="#fdfdf3" d="M0 0h1920v1080H0z"/><path d="M41 162.5l-41 29v-58zm1838 270l41-27.5v55z" fill="#ffd466"/><path d="M26 537.5l-26 19v-38z" fill="#53bfed"/><path d="M38 586L0 613.5v-55zM26 901.5l-26 19v-38z" fill="#f74a2a"/><path d="M1894 898.5l26-19v38z" fill="#5d9e64"/><path d="M1883 203l37-27.5v55z" fill="#f596c0"/><path d="M1894 155.9l26-18.5v37z" fill="#51c0ed"/><use xlink:href="#B" fill="#f44c2f"/><use xlink:href="#B" x="218" y="-36" fill="#1c8fc7"/><circle cx="745.5" cy="108.5" r="7.5" fill="#f5bad6"/><path fill="#34b187" d="M697.051 292.77l34.437 18.291-3.283 6.181-34.437-18.291z"/><circle cx="247.5" cy="426.5" r="7.5" fill="#619c66"/><path fill="#1995c9" d="M495 385.225L475.5 419l-6.062-3.5 19.5-33.775z"/><circle cx="897.5" cy="532.5" r="7.5" fill="#f5bad6"/><path fill="#5c9b62" d="M627.895 681.228l38.852-3.394.609 6.973-38.852 3.394z"/><path d="M544.808 813.187l-16.528 4.908 3.824-16.564z" fill="#f7c901"/><path d="M396.015 974.179l14.552-10.404 2.503 15.803z" fill="#5d9a61"/><use xlink:href="#B" x="412.123" y="859.003" fill="#ec5023"/><use xlink:href="#B" x="-140.877" y="859.003" fill="#6969a9"/><path fill="#5c9b62" d="M1290.922 752.615l-10.764 37.479-6.727-1.932 10.764-37.479z"/><path fill="#f7c901" d="M1732.968 499.22l-16.482-35.346 6.344-2.958 16.482 35.346z"/><path d="M1336.148 376.104l5.482 16.346-16.688-3.244z" fill="#6969a9"/><path d="M1197.504 627.759l1.338-17.187 14.093 9.503z" fill="#f7c901"/><path fill="#f5bad6" d="M960 239.145l8.113-38.147 6.847 1.456-8.113 38.147z"/><path d="M1100.527 431.152l4.496 17.314-15.65-3.328z" fill="#5d9a61"/><path fill="#ec5023" d="M999.872 690.852l-11.258 6.5-6.5-11.258 11.258-6.5z"/><path fill="#34b187" d="M1576.917 64.569l34.437 18.291-3.283 6.181-34.437-18.291z"/><path d="M1274.674 71.986l-16.528 4.908 3.824-16.564z" fill="#f7c901"/><circle cx="1122.366" cy="228.299" r="7.5" fill="#f44c2f"/><use xlink:href="#B" x="1306.867" y="145.798" fill="#f7c901"/><path fill="#1995c9" d="M1570.242 894.527l38.852-3.394.609 6.973-38.852 3.394z"/><circle cx="1527.366" cy="632.299" r="7.5" fill="#f5bad6"/><use xlink:href="#B" x="1414.123" y="645.175" fill="#ec5023"/><path fill="#6969a9" d="M1360.471 1001.126h-13v-13h13z"/><path d="M1141.722 941.363l9.762-14.211 7.446 15.283z" fill="#f7c901"/><use xlink:href="#B" x="1226.35" y="359.805" fill="#1c8fc7"/><path d="M1879.32 75.872L1894 78.998l-10.037 11.147z" fill="#f04d24"/><path d="M1861.845 333.983l12.216-10.524 3.053 15.706zm-36 622l12.216-10.524 3.053 15.706z" fill="#696ba4"/><use xlink:href="#B" x="1587.486" y="660.741" fill="#78d1f3"/><path fill="#f54c25" d="M1822.429 636.849l38.947 2.041-.366 6.99-38.947-2.041z"/><path d="M72.023 300.99l-15.52 4.375 3.871-15.525z" fill="#ef4c29"/><g fill="#fcbad6"><circle cx="64.5" cy="52.5" r="7.5"/><circle cx="45.5" cy="765.5" r="7.5"/></g><defs ><path id="B" d="M262.414 116.078l10.101 8.177-8.177 10.101-10.101-8.177z"/></defs></svg>